<svg xmlns="http://www.w3.org/2000/svg" xmlns:xlink="http://www.w3.org/1999/xlink" width="1650" height="1050" viewBox="0 0 1650 1050">
<defs><clipPath id="c"><rect width="1650" height="1050" rx="16"/></clipPath>
  <clipPath id="strip"><rect x="0" y="900" width="1650" height="150"/></clipPath>
  <linearGradient id="stripFade" x1="0" y1="1" x2="0" y2="0">
    <stop offset="0%" stop-color="#050a10" stop-opacity="0.55"/>
    <stop offset="100%" stop-color="#050a10" stop-opacity="1"/>
  </linearGradient></defs>
<g clip-path="url(#c)">
<rect width="1650" height="1050" fill="#050a10"/>
<g clip-path="url(#strip)" opacity="0.22"><image xlink:href="chicago-base.jpg" x="0" y="620" width="1650" height="430" preserveAspectRatio="xMidYMid slice"/></g>
<rect x="0" y="900" width="1650" height="150" fill="url(#stripFade)"/>
<rect x="34" y="34" width="1582" height="982" rx="6" fill="none" stroke="#00E5FF" stroke-width="1.6" opacity="0.30"/>
<text x="92" y="126" font-family="Menlo" font-size="46" font-weight="bold" letter-spacing="6" fill="#eaf2f6">KC9MHE</text>
<text x="1558" y="126" text-anchor="end" font-family="Menlo" font-size="24" letter-spacing="5" fill="#00E5FF">CONFIRMING QSO WITH</text>
<line x1="92" y1="162" x2="1558" y2="162" stroke="#00E5FF" stroke-width="2" opacity="0.45"/>
<text x="92" y="228" font-family="Menlo" font-size="22" letter-spacing="4" fill="#00E5FF">TO RADIO</text>
<line x1="92" y1="272" x2="1558" y2="272" stroke="#7d8c96" stroke-width="1.8" opacity="0.6"/>
<text x="92" y="342" font-family="Menlo" font-size="22" letter-spacing="4" fill="#00E5FF">DATE (UTC)</text>
<line x1="92" y1="374" x2="770" y2="374" stroke="#7d8c96" stroke-width="1.6" opacity="0.55"/>
<text x="92" y="442" font-family="Menlo" font-size="22" letter-spacing="4" fill="#00E5FF">TIME (UTC)</text>
<line x1="92" y1="474" x2="770" y2="474" stroke="#7d8c96" stroke-width="1.6" opacity="0.55"/>
<text x="92" y="542" font-family="Menlo" font-size="22" letter-spacing="4" fill="#00E5FF">FREQ / BAND</text>
<line x1="92" y1="574" x2="770" y2="574" stroke="#7d8c96" stroke-width="1.6" opacity="0.55"/>
<text x="92" y="642" font-family="Menlo" font-size="22" letter-spacing="4" fill="#00E5FF">MODE</text>
<line x1="92" y1="674" x2="770" y2="674" stroke="#7d8c96" stroke-width="1.6" opacity="0.55"/>
<text x="92" y="742" font-family="Menlo" font-size="22" letter-spacing="4" fill="#00E5FF">RST SENT</text>
<line x1="92" y1="774" x2="770" y2="774" stroke="#7d8c96" stroke-width="1.6" opacity="0.55"/>
<text x="880" y="342" font-family="Menlo" font-size="22" letter-spacing="4" fill="#00E5FF">POWER</text>
<line x1="880" y1="374" x2="1558" y2="374" stroke="#7d8c96" stroke-width="1.6" opacity="0.55"/>
<text x="880" y="442" font-family="Menlo" font-size="22" letter-spacing="4" fill="#00E5FF">ANTENNA</text>
<line x1="880" y1="474" x2="1558" y2="474" stroke="#7d8c96" stroke-width="1.6" opacity="0.55"/>
<text x="880" y="542" font-family="Menlo" font-size="22" letter-spacing="4" fill="#00E5FF">2-WAY</text>
<line x1="880" y1="574" x2="1558" y2="574" stroke="#7d8c96" stroke-width="1.6" opacity="0.55"/>
<text x="880" y="642" font-family="Menlo" font-size="22" letter-spacing="4" fill="#00E5FF">QSL VIA</text>
<line x1="880" y1="674" x2="1558" y2="674" stroke="#7d8c96" stroke-width="1.6" opacity="0.55"/>
<text x="880" y="742" font-family="Menlo" font-size="22" letter-spacing="4" fill="#00E5FF">REMARKS</text>
<line x1="880" y1="774" x2="1558" y2="774" stroke="#7d8c96" stroke-width="1.6" opacity="0.55"/>
<text x="92" y="926" font-family="Menlo" font-size="22" letter-spacing="4" fill="#FFB300">PSE / TNX QSL &#183; LoTW &#183; QRZ.COM/DB/KC9MHE</text>
<text x="1558" y="926" text-anchor="end" font-family="Menlo" font-size="22" letter-spacing="4" fill="#7d8c96">GRID EN61DT &#183; CHICAGO, IL</text>
</g>
</svg>